<?xml version="1.0" encoding="utf-8"?>
<!-- Generator: Adobe Illustrator 23.0.3, SVG Export Plug-In . SVG Version: 6.00 Build 0)  -->
<svg version="1.1" id="katman_1" xmlns="http://www.w3.org/2000/svg" xmlns:xlink="http://www.w3.org/1999/xlink" x="0px" y="0px"
	 viewBox="0 0 500 500" style="enable-background:new 0 0 500 500;" xml:space="preserve">
<style type="text/css">
	.st0{fill:#FFFFFF;stroke:#FFFFFF;stroke-miterlimit:10;}
</style>
<g>
	<path class="st0" d="M73.6,57.7"/>
	<g>
		<rect x="45.9" y="45.9" class="st0" width="1.1" height="9.7"/>
		<rect x="48.8" y="45.9" class="st0" width="1.1" height="9.7"/>
		<rect x="51.6" y="45.9" class="st0" width="1.1" height="9.7"/>
		<rect x="54.4" y="46.7" class="st0" width="1.1" height="8.9"/>
		<rect x="57.3" y="47.8" class="st0" width="1.1" height="7.7"/>
		<rect x="60.1" y="50" class="st0" width="1.1" height="5.5"/>
	</g>
	<g>
		<rect x="46" y="59.8" class="st0" width="1.1" height="9.7"/>
		<rect x="48.9" y="59.8" class="st0" width="1.1" height="9.7"/>
		<rect x="51.7" y="59.8" class="st0" width="1.1" height="9.7"/>
		<rect x="54.6" y="59.8" class="st0" width="1.1" height="8.9"/>
		<rect x="57.4" y="59.8" class="st0" width="1.1" height="6.9"/>
		<rect x="60.2" y="59.8" class="st0" width="1.1" height="4.9"/>
	</g>
	<g>
		<rect x="85.9" y="59.9" class="st0" width="1.1" height="9.7"/>
		<rect x="83.1" y="59.9" class="st0" width="1.1" height="9.7"/>
		<rect x="80.2" y="59.9" class="st0" width="1.1" height="9.7"/>
		<rect x="77.4" y="59.9" class="st0" width="1.1" height="7.7"/>
		<rect x="74.5" y="59.9" class="st0" width="1.1" height="6.5"/>
		<rect x="71.7" y="59.9" class="st0" width="1.1" height="4.1"/>
	</g>
	<rect x="86" y="45.8" class="st0" width="1.1" height="9.7"/>
	<rect x="83.2" y="45.8" class="st0" width="1.1" height="9.7"/>
	<rect x="80.3" y="45.8" class="st0" width="1.1" height="9.7"/>
	<rect x="77.5" y="46.6" class="st0" width="1.1" height="8.9"/>
	<rect x="74.6" y="48.9" class="st0" width="1.1" height="6.5"/>
	<rect x="71.8" y="50.7" class="st0" width="1.1" height="4.7"/>
	<path class="st0" d="M96.4,51c0,0,0.1-8.8,0-13.3c-0.1-4.5-5.5-5.6-5.5-5.6c8.7-1.1,8.7,6,8.7,6s0,5.8,0,12.5s6.7,6.8,6.7,6.8
		C95.5,57.7,96.4,51,96.4,51z"/>
	<path class="st0" d="M96.3,64c0,0,0.1,8.8,0,13.3c-0.1,4.5-5.5,5.6-5.5,5.6c8.7,1.1,8.7-6,8.7-6s0-5.8,0-12.5s6.7-6.8,6.7-6.8
		C95.5,57.3,96.3,64,96.3,64z"/>
	<path class="st0" d="M37.9,51c0,0-0.1-8.8,0-13.3c0.1-4.5,5.4-5.6,5.4-5.6c-8.7-1.1-8.8,6-8.8,6s0,5.8,0,12.5s-6.6,6.8-6.6,6.8
		C38.6,57.7,37.9,51,37.9,51z"/>
	<path class="st0" d="M38.1,64c0,0-0.1,8.8,0,13.3c0.1,4.5,5.3,5.6,5.3,5.6c-8.7,1.1-8.9-6-8.9-6s0-5.8,0-12.5S28,57.6,28,57.6
		C38.7,57.3,38.1,64,38.1,64z"/>
	<g>
		<path class="st0" d="M69.3,58.3c-0.4,0.5-0.8,1-1.2,1.6c-0.1,0.1-0.2,0.2-0.3,0.3c9.8,12.6,21.5,11.3,21.5,11.3v-2
			C89.4,69.4,79.6,70.8,69.3,58.3z"/>
		<path class="st0" d="M64.9,56.3c0.5-0.6,0.9-1.2,1.4-1.8C56.1,42.8,44.6,43.9,44.6,43.9v2.3C44.6,46.2,55.4,45.3,64.9,56.3z"/>
	</g>
	<path class="st0" d="M65.9,56.6c10.6-14.1,23.5-12.9,23.5-12.9V46C89.4,46,77,45,67,58.8S44.6,71.2,44.6,71.2v-2
		C44.6,69.2,55.2,70.7,65.9,56.6z"/>
</g>
</svg>
