<?xml version="1.0" encoding="utf-8"?>
<!-- Generator: Adobe Illustrator 23.0.3, SVG Export Plug-In . SVG Version: 6.00 Build 0)  -->
<svg version="1.1" id="katman_1" xmlns="http://www.w3.org/2000/svg" xmlns:xlink="http://www.w3.org/1999/xlink" x="0px" y="0px"
	 viewBox="0 0 500 500" style="enable-background:new 0 0 500 500;" xml:space="preserve">
<style type="text/css">
	.st0{fill:#F2F2F2;stroke:#FFFF00;stroke-miterlimit:10;}
</style>
<g>
	<path class="st0" d="M69.9,55.2"/>
	<g>
		<rect x="44.5" y="44.5" class="st0" width="1" height="8.7"/>
		<rect x="47.1" y="44.5" class="st0" width="1" height="8.7"/>
		<rect x="49.7" y="44.5" class="st0" width="1" height="8.7"/>
		<rect x="52.3" y="45.2" class="st0" width="1" height="8"/>
		<rect x="55" y="46.3" class="st0" width="1" height="6.9"/>
		<rect x="57.6" y="48.2" class="st0" width="1" height="5"/>
	</g>
	<g>
		<rect x="44.6" y="57" class="st0" width="1" height="8.7"/>
		<rect x="47.2" y="57" class="st0" width="1" height="8.7"/>
		<rect x="49.8" y="57" class="st0" width="1" height="8.7"/>
		<rect x="52.4" y="57" class="st0" width="1" height="8"/>
		<rect x="55.1" y="57" class="st0" width="1" height="6.2"/>
		<rect x="57.7" y="57" class="st0" width="1" height="4.4"/>
	</g>
	<g>
		<rect x="81.3" y="57.1" class="st0" width="1" height="8.7"/>
		<rect x="78.7" y="57.1" class="st0" width="1" height="8.7"/>
		<rect x="76.1" y="57.1" class="st0" width="1" height="8.7"/>
		<rect x="73.5" y="57.1" class="st0" width="1" height="6.9"/>
		<rect x="70.8" y="57.1" class="st0" width="1" height="5.9"/>
		<rect x="68.2" y="57.1" class="st0" width="1" height="3.7"/>
	</g>
	<rect x="81.4" y="44.4" class="st0" width="1" height="8.7"/>
	<rect x="78.8" y="44.4" class="st0" width="1" height="8.7"/>
	<rect x="76.2" y="44.4" class="st0" width="1" height="8.7"/>
	<rect x="73.6" y="45.1" class="st0" width="1" height="8"/>
	<rect x="70.9" y="47.3" class="st0" width="1" height="5.9"/>
	<rect x="68.3" y="48.9" class="st0" width="1" height="4.3"/>
	<path class="st0" d="M90.9,49.1c0,0,0.1-7.9,0-12c-0.1-4-5.1-5-5.1-5c8-1,8,5.4,8,5.4s0,5.2,0,11.3s6.2,6.1,6.2,6.1
		C90.2,55.2,90.9,49.1,90.9,49.1z"/>
	<path class="st0" d="M90.8,60.9c0,0,0.1,7.9,0,12c-0.1,4-5.1,5-5.1,5c8,1,8-5.4,8-5.4s0-5.2,0-11.3s6.1-6.1,6.1-6.1
		C90.1,54.8,90.8,60.9,90.8,60.9z"/>
	<path class="st0" d="M37.1,49.1c0,0-0.1-7.9,0-12c0.1-4,5-5,5-5c-8-1-8.1,5.4-8.1,5.4s0,5.2,0,11.3s-6.1,6.1-6.1,6.1
		C37.7,55.2,37.1,49.1,37.1,49.1z"/>
	<path class="st0" d="M37.3,60.9c0,0-0.1,7.9,0,12c0.1,4,4.9,5,4.9,5c-8,1-8.2-5.4-8.2-5.4s0-5.2,0-11.3s-6-6.1-6-6.1
		C37.8,54.8,37.3,60.9,37.3,60.9z"/>
	<g>
		<path class="st0" d="M66.1,55.7c-0.4,0.4-0.7,0.9-1.1,1.4c-0.1,0.1-0.2,0.2-0.2,0.3c9.1,11.3,19.8,10.2,19.8,10.2v-1.8
			C84.5,65.7,75.5,67,66.1,55.7z"/>
		<path class="st0" d="M62,53.9c0.4-0.6,0.8-1.1,1.3-1.6c-9.4-10.5-20-9.5-20-9.5v2.1C43.3,44.8,53.2,44,62,53.9z"/>
	</g>
	<path class="st0" d="M62.9,54.2c9.8-12.7,21.7-11.6,21.7-11.6v2.1c0,0-11.4-0.9-20.6,11.5S43.3,67.3,43.3,67.3v-1.8
		C43.3,65.5,53.1,66.9,62.9,54.2z"/>
</g>
</svg>
